<svg xmlns="http://www.w3.org/2000/svg" viewBox="0 0 200 200" width="200" height="200">
  <!-- Linguo the Fox - Celebrating -->
  <!-- Stars -->
  <polygon points="30,30 33,40 43,40 35,46 38,56 30,50 22,56 25,46 17,40 27,40" fill="#FFC800" opacity="0.8"/>
  <polygon points="170,25 172,32 179,32 173,36 175,43 170,39 165,43 167,36 161,32 168,32" fill="#FFC800" opacity="0.6"/>
  <polygon points="155,60 157,65 162,65 158,68 159,73 155,70 151,73 152,68 148,65 153,65" fill="#58CC02" opacity="0.7"/>
  <ellipse cx="60" cy="170" rx="35" ry="15" fill="#FF8C42" transform="rotate(-10, 60, 170)"/>
  <ellipse cx="42" cy="165" rx="12" ry="8" fill="#FFFFFF" transform="rotate(-10, 42, 165)"/>
  <ellipse cx="100" cy="150" rx="40" ry="35" fill="#FF8C42"/>
  <ellipse cx="100" cy="155" rx="28" ry="25" fill="#FFD4A8"/>
  <!-- Arms raised -->
  <ellipse cx="55" cy="130" rx="10" ry="18" fill="#FF8C42" transform="rotate(30, 55, 130)"/>
  <ellipse cx="145" cy="130" rx="10" ry="18" fill="#FF8C42" transform="rotate(-30, 145, 130)"/>
  <circle cx="100" cy="90" r="40" fill="#FF8C42"/>
  <polygon points="68,60 58,20 88,50" fill="#FF8C42"/>
  <polygon points="72,55 64,28 85,50" fill="#FFD4A8"/>
  <polygon points="132,60 142,20 112,50" fill="#FF8C42"/>
  <polygon points="128,55 136,28 115,50" fill="#FFD4A8"/>
  <ellipse cx="100" cy="100" rx="30" ry="25" fill="#FFD4A8"/>
  <!-- Excited eyes -->
  <circle cx="85" cy="85" r="7" fill="#3C3C3C"/>
  <circle cx="115" cy="85" r="7" fill="#3C3C3C"/>
  <circle cx="87" cy="82" r="3" fill="#FFFFFF"/>
  <circle cx="117" cy="82" r="3" fill="#FFFFFF"/>
  <ellipse cx="100" cy="97" rx="5" ry="3.5" fill="#3C3C3C"/>
  <!-- Open mouth smile -->
  <ellipse cx="100" cy="108" rx="10" ry="7" fill="#3C3C3C"/>
  <ellipse cx="100" cy="105" rx="8" ry="4" fill="#FF6B6B"/>
  <circle cx="75" cy="98" r="7" fill="#FFB3B3" opacity="0.5"/>
  <circle cx="125" cy="98" r="7" fill="#FFB3B3" opacity="0.5"/>
</svg>
