<svg xmlns="http://www.w3.org/2000/svg" viewBox="0 0 200 200" width="200" height="200">
  <!-- Linguo the Fox - Encouraging -->
  <ellipse cx="60" cy="170" rx="35" ry="15" fill="#FF8C42" transform="rotate(-20, 60, 170)"/>
  <ellipse cx="42" cy="165" rx="12" ry="8" fill="#FFFFFF" transform="rotate(-20, 42, 165)"/>
  <ellipse cx="100" cy="150" rx="40" ry="35" fill="#FF8C42"/>
  <ellipse cx="100" cy="155" rx="28" ry="25" fill="#FFD4A8"/>
  <!-- Thumbs up arm -->
  <ellipse cx="148" cy="135" rx="10" ry="16" fill="#FF8C42" transform="rotate(-15, 148, 135)"/>
  <circle cx="152" cy="118" r="8" fill="#FF8C42"/>
  <ellipse cx="152" cy="112" rx="4" ry="7" fill="#FF8C42"/>
  <circle cx="100" cy="90" r="40" fill="#FF8C42"/>
  <polygon points="68,60 58,20 88,50" fill="#FF8C42"/>
  <polygon points="72,55 64,28 85,50" fill="#FFD4A8"/>
  <polygon points="132,60 142,20 112,50" fill="#FF8C42"/>
  <polygon points="128,55 136,28 115,50" fill="#FFD4A8"/>
  <ellipse cx="100" cy="100" rx="30" ry="25" fill="#FFD4A8"/>
  <!-- Warm eyes -->
  <circle cx="85" cy="85" r="6" fill="#3C3C3C"/>
  <circle cx="115" cy="85" r="6" fill="#3C3C3C"/>
  <circle cx="87" cy="83" r="2" fill="#FFFFFF"/>
  <circle cx="117" cy="83" r="2" fill="#FFFFFF"/>
  <ellipse cx="100" cy="97" rx="5" ry="3.5" fill="#3C3C3C"/>
  <!-- Warm smile -->
  <path d="M90,103 Q100,112 110,103" stroke="#3C3C3C" stroke-width="2" fill="none" stroke-linecap="round"/>
  <circle cx="75" cy="98" r="5" fill="#FFB3B3" opacity="0.4"/>
  <circle cx="125" cy="98" r="5" fill="#FFB3B3" opacity="0.4"/>
</svg>
