<svg xmlns="http://www.w3.org/2000/svg" viewBox="0 0 200 200" width="200" height="200">
  <!-- Linguo the Fox - Sleeping -->
  <!-- Zzz -->
  <text x="140" y="40" font-size="18" font-weight="bold" fill="#777777" opacity="0.7">Z</text>
  <text x="155" y="28" font-size="14" font-weight="bold" fill="#777777" opacity="0.5">Z</text>
  <text x="165" y="18" font-size="10" font-weight="bold" fill="#777777" opacity="0.3">Z</text>
  <ellipse cx="60" cy="175" rx="35" ry="15" fill="#FF8C42" transform="rotate(-25, 60, 175)"/>
  <ellipse cx="42" cy="170" rx="12" ry="8" fill="#FFFFFF" transform="rotate(-25, 42, 170)"/>
  <ellipse cx="100" cy="155" rx="40" ry="35" fill="#FF8C42"/>
  <ellipse cx="100" cy="160" rx="28" ry="25" fill="#FFD4A8"/>
  <circle cx="100" cy="95" r="40" fill="#FF8C42"/>
  <!-- Relaxed ears -->
  <polygon points="68,65 52,28 85,55" fill="#FF8C42"/>
  <polygon points="72,60 58,34 83,55" fill="#FFD4A8"/>
  <polygon points="132,65 148,28 115,55" fill="#FF8C42"/>
  <polygon points="128,60 142,34 117,55" fill="#FFD4A8"/>
  <ellipse cx="100" cy="105" rx="30" ry="25" fill="#FFD4A8"/>
  <!-- Closed eyes -->
  <path d="M79,90 Q85,93 91,90" stroke="#3C3C3C" stroke-width="2.5" fill="none" stroke-linecap="round"/>
  <path d="M109,90 Q115,93 121,90" stroke="#3C3C3C" stroke-width="2.5" fill="none" stroke-linecap="round"/>
  <ellipse cx="100" cy="102" rx="5" ry="3.5" fill="#3C3C3C"/>
  <!-- Peaceful mouth -->
  <path d="M95,110 Q100,113 105,110" stroke="#3C3C3C" stroke-width="1.5" fill="none" stroke-linecap="round"/>
</svg>
